<svg width="17" height="22" viewBox="0 0 17 22" fill="none" xmlns="http://www.w3.org/2000/svg">
<path d="M16.3643 6.23047C16.8115 6.23047 17.1215 5.77066 16.9538 5.34901C16.3584 3.85193 14.9144 2.79297 13.2316 2.79297H12.4536C12.1635 1.23436 10.82 0 9.17594 0H7.82406C6.18107 0 4.83663 1.23355 4.54636 2.79297H3.76844C2.08561 2.79297 0.641552 3.85193 0.0461782 5.34901C-0.121497 5.77066 0.188548 6.23047 0.635722 6.23047H16.3643ZM7.82406 1.28906H9.17594C10.1011 1.28906 10.8865 1.92216 11.1509 2.79297H5.84914C6.11352 1.92216 6.89887 1.28906 7.82406 1.28906Z" />
<path d="M2.37662 20.2037C2.44713 21.211 3.2801 22 4.27288 22H12.7272C13.72 22 14.553 21.211 14.6235 20.2037L15.5116 7.51953H1.48853L2.37662 20.2037ZM10.233 10.9678C10.2504 10.6123 10.5485 10.3381 10.8975 10.3563C11.247 10.3741 11.5162 10.6767 11.4987 11.0322L11.1608 17.9072C11.1438 18.2517 10.8638 18.5195 10.5284 18.5195C10.1635 18.5195 9.87695 18.2092 9.89495 17.8428L10.233 10.9678ZM6.10264 10.3563C6.45172 10.3385 6.74973 10.6123 6.76717 10.9678L7.10514 17.8428C7.12314 18.2093 6.83637 18.5195 6.4717 18.5195C6.13627 18.5195 5.85626 18.2517 5.83932 17.9072L5.50135 11.0322C5.48391 10.6767 5.7531 10.3741 6.10264 10.3563Z"/>
</svg>
